<?xml version="1.0" encoding="UTF-8"?>
<svg width="16px" height="17px" viewBox="0 0 16 17" version="1.1" xmlns="http://www.w3.org/2000/svg" xmlns:xlink="http://www.w3.org/1999/xlink">
    <title>icon-international</title>
    <g id="03_Footer" stroke="none" stroke-width="1" fill="none" fill-rule="evenodd">
        <g id="1200" transform="translate(-824.000000, -75.000000)" fill="#2FA9AC">
            <g id="Group" transform="translate(-206.000000, -0.500000)">
                <g id="Group-7-Copy" transform="translate(1030.000000, 72.000000)">
                    <path d="M8,4 C12.418278,4 16,7.581722 16,12 C16,16.418278 12.418278,20 8,20 C3.581722,20 0,16.418278 0,12 C0,9.16778153 1.47176781,6.67931285 3.69221776,5.25767962 L3.69230769,5.23076923 L3.73598745,5.22985573 C4.97031117,4.45081237 6.43250915,4 8,4 Z M5.025,12.615 L4.92307692,12.6153846 L4.923,12.504 L2.46153846,9.81818182 L3.1633933,7.26399404 C1.96784188,8.48478089 1.23076923,10.1563142 1.23076923,12 C1.23076923,15.5309789 3.93427125,18.430521 7.38425116,18.7416022 L7.384,16.307 L6.15384615,16.3076923 L6.15384615,13.8461538 L5.025,12.615 Z M9.84615031,5.48557744 L9.84615385,7.69230769 L7.384,7.692 L7.38461538,8.92307692 L6.153,8.923 L6.153,10.153 L8.61538462,10.1538462 L8.61538462,12.6153846 L11.0769231,12.6153846 L11.0769231,16.3076923 L9.846,16.307 L9.84615031,18.5144226 C12.6873888,17.7108189 14.7692308,15.0985296 14.7692308,12 C14.7692308,8.90147041 12.6873888,6.28918106 9.84615031,5.48557744 Z" id="icon-international"></path>
                </g>
            </g>
        </g>
    </g>
</svg>